<svg xmlns="http://www.w3.org/2000/svg" width="180" height="180" viewBox="0 0 180 180" role="img" aria-labelledby="title desc">
  <title id="title">Hadith MCP mark</title>
  <desc id="desc">A geometric book, citation chain, and terminal prompt mark.</desc>
  <defs>
    <linearGradient id="ink" x1="20" y1="22" x2="160" y2="158" gradientUnits="userSpaceOnUse">
      <stop offset="0" stop-color="#0f3f3a"/>
      <stop offset="1" stop-color="#0b1d28"/>
    </linearGradient>
    <linearGradient id="copper" x1="36" y1="28" x2="148" y2="144" gradientUnits="userSpaceOnUse">
      <stop offset="0" stop-color="#d9b36c"/>
      <stop offset="1" stop-color="#9f5d37"/>
    </linearGradient>
  </defs>
  <rect x="10" y="10" width="160" height="160" rx="34" fill="url(#ink)"/>
  <path d="M42 54c0-9 7-16 16-16h69c6 0 11 5 11 11v85H59c-9 0-17-7-17-16V54Z" fill="#f5f0e4"/>
  <path d="M59 38h68c6 0 11 5 11 11v73H61c-6 0-11-5-11-11V47c2-5 5-9 9-9Z" fill="#fff9ec"/>
  <path d="M62 61h51M62 77h39M62 93h56" stroke="#18443d" stroke-width="6" stroke-linecap="round"/>
  <path d="M50 47v70c0 8 6 14 14 14h74" fill="none" stroke="url(#copper)" stroke-width="8" stroke-linecap="round"/>
  <circle cx="72" cy="139" r="8" fill="#d9b36c"/>
  <circle cx="106" cy="139" r="8" fill="#d9b36c"/>
  <circle cx="140" cy="139" r="8" fill="#d9b36c"/>
  <path d="M80 139h18M114 139h18" stroke="#d9b36c" stroke-width="6" stroke-linecap="round"/>
  <path d="M76 116l10-10-10-10M98 116h24" stroke="#0f3f3a" stroke-width="7" stroke-linecap="round" stroke-linejoin="round"/>
</svg>
